<?xml version="1.0" encoding="UTF-8"?>
<svg id="Camada_1" data-name="Camada 1" xmlns="http://www.w3.org/2000/svg" viewBox="0 0 849.78 611.08">
  <path d="M459.04,69.42l-78.43,92.47c-16.51-12.1-32.61-21.47-48.3-28.07-15.69-6.6-32.34-9.91-49.95-9.91-33.58,0-59.58,15.14-78.02,45.41-18.45,30.28-27.66,75.13-27.66,134.57s9.35,103.9,28.07,133.33c18.71,29.45,45.41,44.17,80.08,44.17,18.71,0,36.18-3.84,52.43-11.56,16.23-7.7,34.26-19.26,54.08-34.68l74.3,94.12c-23.12,23.12-51.06,42.25-83.8,57.38-32.75,15.13-67.84,22.7-105.26,22.7-56.7,0-105.68-11.7-146.96-35.09-41.28-23.39-73.21-57.92-95.77-103.61C11.27,424.98,0,369.4,0,303.89s11.56-116.82,34.68-162.23c23.12-45.41,55.31-80.08,96.6-104.03C172.55,13.69,220.15,1.72,274.1,1.72c71,0,132.64,22.58,184.94,67.7Z" fill="#1f2937"/>
  <path d="M849.05,592.85h-213.01l-125.49-419.41,2.48,18.16c6.05,40.18,10.86,76.92,14.45,110.22,3.57,33.31,5.37,70.87,5.37,112.7v178.33h-150.26V18.23h208.88l130.45,421.06-2.48-17.34c-6.61-37.98-11.7-73.34-15.27-106.09-3.59-32.74-5.37-70.59-5.37-113.52V18.23h150.26v574.62Z" fill="#9ca3af"/>
</svg>