<?xml version="1.0" encoding="UTF-8"?>
<svg id="Camada_1" data-name="Camada 1" xmlns="http://www.w3.org/2000/svg" viewBox="0 0 849.78 611.08">
  <path d="M459.38,69.56l-78.39,92.41c-16.5-12.09-32.59-21.45-48.27-28.05-15.68-6.6-32.32-9.9-49.92-9.9-33.56,0-59.55,15.14-77.97,45.38-18.44,30.26-27.64,75.09-27.64,134.49s9.35,103.84,28.05,133.26c18.69,29.43,45.38,44.14,80.04,44.14,18.69,0,36.16-3.84,52.4-11.55,16.22-7.7,34.24-19.25,54.05-34.66l74.26,94.06c-23.1,23.1-51.03,42.22-83.75,57.35-32.73,15.12-67.8,22.69-105.2,22.69-56.66,0-105.62-11.69-146.87-35.07-41.26-23.37-73.16-57.89-95.71-103.55C11.88,424.91.61,369.36.61,303.89s11.55-116.75,34.66-162.13c23.1-45.38,55.28-80.04,96.54-103.97C173.06,13.86,220.63,1.9,274.55,1.9c70.96,0,132.56,22.56,184.83,67.66Z" fill="#343380"/>
  <path d="M849.17,592.68h-212.88l-125.42-419.16,2.48,18.15c6.05,40.16,10.86,76.88,14.44,110.15,3.57,33.29,5.36,70.83,5.36,112.63v178.23h-150.17V18.4h208.76l130.37,420.81-2.48-17.33c-6.6-37.96-11.69-73.29-15.27-106.03-3.58-32.72-5.36-70.55-5.36-113.45V18.4h150.17v574.28Z" fill="#7070b2"/>
</svg>