<?xml version="1.0" encoding="UTF-8"?>
<svg id="Camada_1" data-name="Camada 1" xmlns="http://www.w3.org/2000/svg" viewBox="0 0 3000 611.08">
  <g>
    <path d="M1179.38,205.02l-42.34,49.92c-8.91-6.53-17.6-11.59-26.07-15.15-8.47-3.57-17.46-5.35-26.96-5.35-18.13,0-32.17,8.18-42.12,24.51-9.96,16.34-14.93,40.56-14.93,72.65s5.05,56.09,15.15,71.98c10.1,15.9,24.51,23.84,43.23,23.84,10.1,0,19.53-2.08,28.3-6.24,8.76-4.16,18.5-10.4,29.19-18.72l40.11,50.81c-12.48,12.48-27.56,22.81-45.24,30.98-17.68,8.17-36.62,12.26-56.83,12.26-30.61,0-57.05-6.32-79.33-18.94-22.28-12.62-39.52-31.27-51.7-55.93-12.19-24.66-18.27-54.67-18.27-90.03s6.24-63.06,18.72-87.58c12.48-24.51,29.86-43.23,52.15-56.16,22.28-12.93,47.98-19.39,77.1-19.39,38.33,0,71.6,12.19,99.83,36.55Z" fill="#0e2225"/>
    <path d="M1281.22,131.71c9.36,9.07,14.04,20.28,14.04,33.65s-4.68,24.59-14.04,33.65c-9.36,9.07-21.17,13.59-35.43,13.59s-26.07-4.53-35.43-13.59c-9.36-9.06-14.04-20.28-14.04-33.65s4.68-24.58,14.04-33.65c9.36-9.06,21.17-13.59,35.43-13.59s26.07,4.53,35.43,13.59ZM1289.91,249.59v238h-88.25v-238h88.25Z" fill="#0e2225"/>
    <path d="M1529.92,259.4c11.43,12.48,17.16,30.01,17.16,52.59v175.6h-88.25v-159.56c0-8.91-1.11-15-3.34-18.27-2.23-3.27-5.57-4.9-10.03-4.9-9.81,0-19.76,7.88-29.86,23.62v159.11h-88.25v-238h77.1l6.24,24.51c10.99-11.59,22.21-20.06,33.65-25.4,11.43-5.35,24.29-8.02,38.55-8.02,19.9,0,35.58,6.24,47.02,18.72Z" fill="#0e2225"/>
    <path d="M1804.68,393.55h-144.4c2.37,16.04,7.35,26.82,14.93,32.31,7.58,5.5,18.5,8.25,32.76,8.25,8.31,0,16.78-1.71,25.4-5.13,8.61-3.41,18.12-8.69,28.52-15.82l35.65,48.13c-28.82,23.48-61.5,35.21-98.05,35.21-42.19,0-74.14-11.66-95.82-34.99-21.69-23.32-32.54-54.15-32.54-92.48,0-23.77,4.53-45.38,13.59-64.85,9.06-19.46,22.51-34.91,40.33-46.35,17.83-11.44,39.37-17.16,64.62-17.16,23.47,0,43.97,4.9,61.5,14.71,17.53,9.81,31.12,24.07,40.78,42.79,9.65,18.72,14.48,41.16,14.48,67.3,0,7.43-.6,16.79-1.78,28.08ZM1719.55,340.51c-.3-13.96-2.45-24.81-6.46-32.54-4.01-7.72-11.22-11.59-21.62-11.59-9.81,0-17.16,3.42-22.06,10.25-4.9,6.84-8.1,19.16-9.58,36.99h59.72v-3.12Z" fill="#0e2225"/>
    <path d="M2082.79,487.59h-114.99l-67.75-226.41,1.34,9.81c3.27,21.69,5.86,41.53,7.8,59.5,1.93,17.98,2.9,38.26,2.9,60.84v96.27h-81.12V177.39h112.76l70.42,227.3-1.34-9.36c-3.57-20.5-6.32-39.59-8.25-57.27-1.94-17.67-2.9-38.11-2.9-61.28v-99.39h81.12v310.2Z" fill="#0e2225"/>
    <path d="M2321.89,274.11c21.84,22.28,32.76,53.93,32.76,94.93,0,25.56-4.98,47.99-14.93,67.3-9.96,19.32-24.14,34.17-42.56,44.57-18.43,10.4-40.11,15.6-65.07,15.6-38.04,0-67.97-11.14-89.81-33.43s-32.76-53.93-32.76-94.93c0-25.55,4.97-47.98,14.93-67.3,9.95-19.31,24.14-34.17,42.56-44.57,18.42-10.4,40.11-15.6,65.07-15.6,38.03,0,67.97,11.14,89.81,33.43ZM2207.57,319.12c-5.06,10.1-7.58,26.45-7.58,49.03s2.52,40.19,7.58,50.14c5.05,9.96,13.22,14.93,24.51,14.93s19.46-5.05,24.51-15.15c5.05-10.1,7.58-26.44,7.58-49.03s-2.53-40.18-7.58-50.14c-5.06-9.95-13.22-14.93-24.51-14.93s-19.46,5.06-24.51,15.15Z" fill="#0e2225"/>
    <path d="M2547.63,476c-9.21,6.54-20.43,11.59-33.65,15.15-13.22,3.57-25.78,5.35-37.66,5.35-29.42-.3-51.18-8.54-65.29-24.74-14.12-16.19-21.17-40.18-21.17-71.98v-90.47h-28.52v-59.72h28.52v-49.92l88.25-10.25v60.17h53.48l-8.91,59.72h-44.57v89.58c0,10.4,1.63,17.76,4.9,22.06,3.27,4.31,7.87,6.46,13.82,6.46,7.42,0,14.85-2.08,22.29-6.24l28.52,54.82Z" fill="#0e2225"/>
    <path d="M2773.15,393.55h-144.4c2.37,16.04,7.35,26.82,14.93,32.31,7.58,5.5,18.5,8.25,32.76,8.25,8.31,0,16.78-1.71,25.4-5.13,8.61-3.41,18.12-8.69,28.52-15.82l35.65,48.13c-28.82,23.48-61.5,35.21-98.05,35.21-42.19,0-74.14-11.66-95.82-34.99-21.69-23.32-32.54-54.15-32.54-92.48,0-23.77,4.53-45.38,13.59-64.85,9.06-19.46,22.51-34.91,40.33-46.35,17.83-11.44,39.37-17.16,64.62-17.16,23.47,0,43.97,4.9,61.5,14.71,17.53,9.81,31.12,24.07,40.78,42.79,9.65,18.72,14.48,41.16,14.48,67.3,0,7.43-.6,16.79-1.78,28.08ZM2688.02,340.51c-.3-13.96-2.45-24.81-6.46-32.54-4.01-7.72-11.22-11.59-21.62-11.59-9.81,0-17.16,3.42-22.06,10.25-4.9,6.84-8.1,19.16-9.58,36.99h59.72v-3.12Z" fill="#0e2225"/>
    <path d="M2944.96,248.93c16.19,5.5,29.79,13,40.78,22.51l-31.2,47.69c-8.62-5.35-17.83-9.58-27.63-12.7-9.81-3.12-19.46-4.68-28.97-4.68-13.37,0-20.06,3.56-20.06,10.7,0,2.97.89,5.42,2.67,7.35,1.78,1.94,6.02,4.31,12.7,7.13,6.68,2.83,17.45,6.46,32.31,10.92,23.77,7.43,41.37,16.87,52.81,28.3,11.43,11.44,17.16,27.56,17.16,48.36,0,16.04-4.83,30.31-14.48,42.79-9.66,12.48-23.03,22.14-40.11,28.97-17.09,6.83-36.48,10.25-58.16,10.25s-40.33-3.34-58.61-10.03-33.65-15.97-46.13-27.86l41.89-46.35c8.91,7.13,18.64,12.86,29.19,17.16,10.54,4.31,21.02,6.46,31.42,6.46,8.02,0,14.19-1.26,18.5-3.79,4.3-2.52,6.46-6.16,6.46-10.92,0-4.16-.97-7.35-2.9-9.58-1.94-2.23-5.87-4.46-11.81-6.68-5.95-2.23-16.34-5.57-31.2-10.03-46.06-13.66-69.08-39.37-69.08-77.1,0-14.55,4.08-27.63,12.26-39.22,8.17-11.59,20.06-20.79,35.66-27.63,15.6-6.83,34.24-10.25,55.93-10.25,17.53,0,34.39,2.75,50.58,8.25Z" fill="#0e2225"/>
  </g>
  <g>
    <path d="M458.77,71.33l-78.39,92.41c-16.5-12.09-32.59-21.45-48.27-28.05-15.68-6.6-32.32-9.9-49.92-9.9-33.56,0-59.55,15.14-77.97,45.38-18.44,30.26-27.64,75.09-27.64,134.49s9.35,103.84,28.05,133.26c18.69,29.43,45.38,44.14,80.04,44.14,18.69,0,36.16-3.84,52.4-11.55,16.22-7.7,34.24-19.25,54.05-34.66l74.26,94.06c-23.1,23.1-51.03,42.22-83.75,57.35-32.73,15.12-67.8,22.69-105.2,22.69-56.66,0-105.62-11.69-146.87-35.07-41.26-23.37-73.16-57.89-95.71-103.55C11.27,426.68,0,371.13,0,305.66s11.55-116.75,34.66-162.13c23.1-45.38,55.28-80.04,96.54-103.97C172.45,15.63,220.02,3.67,273.94,3.67c70.96,0,132.56,22.56,184.83,67.66Z" fill="#0e2225"/>
    <path d="M848.56,594.45h-212.88l-125.42-419.16,2.48,18.15c6.05,40.16,10.86,76.88,14.44,110.15,3.57,33.29,5.36,70.83,5.36,112.63v178.23h-150.17V20.17h208.76l130.37,420.81-2.48-17.33c-6.6-37.96-11.69-73.29-15.27-106.03-3.58-32.72-5.36-70.55-5.36-113.45V20.17h150.17v574.28Z" fill="#5cb567"/>
  </g>
</svg>