<?xml version="1.0" encoding="UTF-8"?>
<svg id="Camada_1" data-name="Camada 1" xmlns="http://www.w3.org/2000/svg" viewBox="0 0 2506.67 459.08">
  <path d="M301.24,105.35l-51.41,60.61c-10.82-7.93-21.37-14.07-31.66-18.4-10.28-4.33-21.2-6.49-32.74-6.49-22.01,0-39.05,9.93-51.14,29.76-12.09,19.84-18.13,49.24-18.13,88.2s6.13,68.1,18.4,87.39c12.26,19.3,29.76,28.95,52.49,28.95,12.26,0,23.72-2.52,34.36-7.58,10.64-5.05,22.46-12.62,35.44-22.73l48.7,61.69c-15.15,15.15-33.47,27.69-54.92,37.61-21.47,9.92-44.47,14.88-68.99,14.88-37.16,0-69.26-7.67-96.32-23-27.06-15.33-47.98-37.96-62.77-67.91C7.76,338.4.37,301.97.37,259.03s7.58-76.57,22.73-106.33c15.15-29.76,36.26-52.49,63.31-68.18,27.06-15.69,58.26-23.54,93.61-23.54,46.54,0,86.94,14.8,121.21,44.37Z" fill="#e5e7eb"/>
  <path d="M424.88,16.34c11.36,11.01,17.05,24.62,17.05,40.85s-5.68,29.85-17.05,40.85c-11.36,11.01-25.7,16.5-43.02,16.5s-31.66-5.5-43.02-16.5c-11.36-11-17.05-24.62-17.05-40.85s5.68-29.85,17.05-40.85C350.21,5.34,364.55-.17,381.86-.17s31.66,5.5,43.02,16.5ZM435.44,159.47v288.96h-107.14V159.47h107.14Z" fill="#e5e7eb"/>
  <path d="M726.83,171.37c13.88,15.15,20.83,36.44,20.83,63.85v213.2h-107.14v-193.72c0-10.82-1.35-18.21-4.06-22.19-2.71-3.96-6.76-5.95-12.18-5.95-11.9,0-24,9.56-36.26,28.68v193.18h-107.14V159.47h93.62l7.58,29.76c13.34-14.07,26.96-24.35,40.86-30.84,13.88-6.49,29.49-9.74,46.81-9.74,24.16,0,43.2,7.58,57.09,22.73Z" fill="#e5e7eb"/>
  <path d="M1060.43,334.25h-175.32c2.88,19.48,8.93,32.56,18.13,39.23,9.2,6.68,22.46,10.01,39.77,10.01,10.09,0,20.38-2.07,30.84-6.22,10.46-4.14,22-10.55,34.63-19.21l43.29,58.44c-35,28.5-74.68,42.75-119.05,42.75-51.23,0-90.01-14.15-116.34-42.48-26.34-28.32-39.5-65.75-39.5-112.28,0-28.86,5.5-55.1,16.5-78.73,11-23.62,27.33-42.39,48.97-56.28,21.65-13.88,47.8-20.83,78.46-20.83,28.49,0,53.39,5.95,74.68,17.86,21.28,11.9,37.79,29.22,49.51,51.95,11.72,22.73,17.59,49.97,17.59,81.71,0,9.02-.73,20.39-2.17,34.09ZM957.07,269.86c-.36-16.95-2.98-30.12-7.85-39.5-4.87-9.38-13.62-14.07-26.24-14.07-11.91,0-20.83,4.15-26.79,12.45-5.95,8.3-9.83,23.27-11.64,44.91h72.51v-3.79Z" fill="#e5e7eb"/>
  <path d="M1398.09,448.43h-139.61l-82.25-274.89,1.62,11.9c3.97,26.34,7.12,50.42,9.47,72.24,2.34,21.83,3.52,46.45,3.52,73.86v116.88h-98.48V71.8h136.9l85.5,275.97-1.62-11.36c-4.33-24.89-7.67-48.07-10.01-69.53-2.35-21.46-3.52-46.27-3.52-74.41v-120.67h98.48v376.62Z" fill="#e5e7eb"/>
  <path d="M1688.39,189.23c26.52,27.06,39.77,65.48,39.77,115.26,0,31.03-6.05,58.26-18.13,81.71-12.09,23.45-29.31,41.49-51.68,54.11-22.37,12.62-48.7,18.94-79,18.94-46.18,0-82.52-13.53-109.04-40.58-26.52-27.06-39.77-65.48-39.77-115.26,0-31.02,6.04-58.26,18.13-81.71,12.08-23.45,29.31-41.48,51.68-54.11,22.36-12.62,48.7-18.94,79.01-18.94,46.17,0,82.52,13.53,109.04,40.58ZM1549.59,243.88c-6.14,12.27-9.2,32.11-9.2,59.52s3.06,48.79,9.2,60.88c6.13,12.09,16.05,18.13,29.76,18.13s23.62-6.13,29.76-18.4c6.13-12.26,9.2-32.1,9.2-59.52s-3.07-48.78-9.2-60.88c-6.14-12.08-16.06-18.13-29.76-18.13s-23.63,6.14-29.76,18.4Z" fill="#e5e7eb"/>
  <path d="M1962.47,434.36c-11.19,7.94-24.81,14.07-40.85,18.4-16.06,4.33-31.3,6.49-45.72,6.49-35.71-.36-62.14-10.37-79.28-30.03-17.14-19.66-25.7-48.79-25.7-87.39v-109.85h-34.63v-72.51h34.63v-60.61l107.14-12.45v73.05h64.93l-10.82,72.51h-54.11v108.77c0,12.63,1.98,21.56,5.95,26.79,3.97,5.23,9.55,7.85,16.77,7.85,9.01,0,18.04-2.52,27.06-7.58l34.63,66.56Z" fill="#e5e7eb"/>
  <path d="M2236.28,334.25h-175.32c2.88,19.48,8.93,32.56,18.13,39.23,9.2,6.68,22.46,10.01,39.77,10.01,10.09,0,20.38-2.07,30.84-6.22,10.46-4.14,22-10.55,34.63-19.21l43.29,58.44c-35,28.5-74.68,42.75-119.05,42.75-51.23,0-90.01-14.15-116.34-42.48-26.34-28.32-39.5-65.75-39.5-112.28,0-28.86,5.5-55.1,16.5-78.73,11-23.62,27.33-42.39,48.97-56.28,21.65-13.88,47.8-20.83,78.46-20.83,28.49,0,53.39,5.95,74.68,17.86,21.28,11.9,37.79,29.22,49.51,51.95,11.72,22.73,17.59,49.97,17.59,81.71,0,9.02-.73,20.39-2.17,34.09ZM2132.92,269.86c-.36-16.95-2.98-30.12-7.85-39.5-4.87-9.38-13.62-14.07-26.24-14.07-11.91,0-20.83,4.15-26.79,12.45-5.95,8.3-9.83,23.27-11.64,44.91h72.51v-3.79Z" fill="#e5e7eb"/>
  <path d="M2444.88,158.65c19.66,6.68,36.16,15.79,49.51,27.33l-37.88,57.9c-10.47-6.49-21.65-11.63-33.55-15.42-11.91-3.79-23.63-5.68-35.17-5.68-16.23,0-24.35,4.33-24.35,12.99,0,3.61,1.08,6.59,3.25,8.93,2.16,2.35,7.3,5.23,15.42,8.66,8.12,3.43,21.19,7.85,39.23,13.26,28.86,9.02,50.23,20.48,64.12,34.36,13.88,13.89,20.83,33.47,20.83,58.71,0,19.48-5.87,36.8-17.59,51.95-11.73,15.15-27.96,26.88-48.7,35.17-20.75,8.29-44.29,12.45-70.62,12.45s-48.97-4.06-71.16-12.18c-22.19-8.12-40.85-19.39-56.01-33.82l50.87-56.28c10.82,8.66,22.63,15.61,35.44,20.83,12.8,5.23,25.52,7.85,38.15,7.85,9.74,0,17.22-1.53,22.46-4.6,5.23-3.06,7.85-7.48,7.85-13.26,0-5.05-1.18-8.93-3.52-11.64-2.35-2.71-7.13-5.41-14.34-8.12-7.22-2.71-19.84-6.76-37.88-12.18-55.92-16.59-83.87-47.8-83.87-93.62,0-17.67,4.95-33.55,14.88-47.62,9.92-14.07,24.35-25.25,43.29-33.55,18.94-8.29,41.57-12.45,67.91-12.45,21.28,0,41.75,3.34,61.42,10.01Z" fill="#e5e7eb"/>
</svg>